# xmcd CD database file
#
# Track frame offsets:
#	150
#	17862
#	33168
#	54569
#	66147
#	82931
#	100603
#	119786
#	133752
#	146118
#	162340
#	177216
#	195983
#	227695
#	332550
#
# Disc length: 4440 seconds
#
# Revision: 15
# Processed by: cddbd v1.5.1PL2 Copyright (c) Steve Scherf et al.
# Submitted via: CDex 1.51
#
DISCID=c911560f
DTITLE=FLOW - GAME
DYEAR=2004
DGENRE=JPop
TTITLE0=GO!!!
TTITLE1=ブラスター
TTITLE2=流星
TTITLE3=Without you
TTITLE4=太陽
TTITLE5=Surprise
TTITLE6=ノスタルジア
TTITLE7=シャリララ
TTITLE8=I.C.U.- 集中治療室
TTITLE9=MC2=E
TTITLE10=その先には…
TTITLE11=ドリームエクスプレス
TTITLE12=Hands
TTITLE13=data
TTITLE14=data
EXTD=YEAR: 2004
EXTT0=
EXTT1=
EXTT2=
EXTT3=
EXTT4=
EXTT5=
EXTT6=
EXTT7=
EXTT8=
EXTT9=
EXTT10=
EXTT11=
EXTT12=
EXTT13=
EXTT14=
PLAYORDER=
